<svg width="35" height="34" viewBox="0 0 35 34" fill="none" xmlns="http://www.w3.org/2000/svg">
<ellipse cx="23.3332" cy="11.3333" rx="2.91667" ry="2.83333" stroke="black" stroke-opacity="0.9" stroke-width="1.5"/>
<path d="M2.9165 17.7085L5.4709 15.5373C6.79984 14.4077 8.80274 14.4725 10.0514 15.6855L16.3072 21.7626C17.3094 22.7362 18.8871 22.8689 20.0467 22.0773L20.4815 21.7804C22.1502 20.6411 24.4079 20.7731 25.9239 22.0985L30.6248 26.2085" stroke="black" stroke-opacity="0.9" stroke-width="1.5" stroke-linecap="round"/>
<path d="M32.0832 17C32.0832 23.6782 32.0832 27.0173 29.9475 29.092C27.8118 31.1666 24.3745 31.1666 17.4998 31.1666C10.6252 31.1666 7.18786 31.1666 5.05218 29.092C2.9165 27.0173 2.9165 23.6782 2.9165 17C2.9165 10.3217 2.9165 6.98263 5.05218 4.90797C7.18786 2.83331 10.6252 2.83331 17.4998 2.83331C24.3745 2.83331 27.8118 2.83331 29.9475 4.90797C31.3675 6.28744 31.8434 8.22593 32.0028 11.3333" stroke="black" stroke-opacity="0.9" stroke-width="1.5" stroke-linecap="round"/>
</svg>