<svg width="31" height="31" viewBox="0 0 31 31" fill="none" xmlns="http://www.w3.org/2000/svg">
<path d="M11.625 24.5417C11.625 26.6818 9.8901 28.4167 7.75 28.4167C5.6099 28.4167 3.875 26.6818 3.875 24.5417C3.875 22.4016 5.6099 20.6667 7.75 20.6667C9.8901 20.6667 11.625 22.4016 11.625 24.5417Z" stroke="black" stroke-opacity="0.9" stroke-width="1.5"/>
<path d="M27.125 21.9583C27.125 24.0984 25.3901 25.8333 23.25 25.8333C21.1099 25.8333 19.375 24.0984 19.375 21.9583C19.375 19.8182 21.1099 18.0833 23.25 18.0833C25.3901 18.0833 27.125 19.8182 27.125 21.9583Z" stroke="black" stroke-opacity="0.9" stroke-width="1.5"/>
<path d="M11.625 24.5416V10.3333" stroke="black" stroke-opacity="0.9" stroke-width="1.5"/>
<path d="M26.375 14.8542C26.375 15.2684 26.7108 15.6042 27.125 15.6042C27.5392 15.6042 27.875 15.2684 27.875 14.8542H26.375ZM27.875 14.8542V7.75H26.375V14.8542H27.875Z" fill="black" fill-opacity="0.9"/>
<path d="M20.3245 4.85018L15.1578 6.5724C13.4528 7.14075 12.6002 7.42492 12.1126 8.10147C11.625 8.77801 11.625 9.67665 11.625 11.4739V15.5L27.125 10.3333V9.75171C27.125 6.48061 27.125 4.84507 26.0522 4.07181C24.9793 3.29856 23.4277 3.81577 20.3245 4.85018Z" stroke="black" stroke-opacity="0.9" stroke-width="1.5" stroke-linecap="round"/>
</svg>