<svg width="31" height="30" viewBox="0 0 31 30" fill="none" xmlns="http://www.w3.org/2000/svg">
<path d="M6.78125 26.25V3.75H15.9528V11.2739H23.7027V14.0625H25.6402V10.6956C25.6402 10.2045 25.4411 9.73304 25.0857 9.3825L18.0446 2.43692C17.6803 2.0775 17.1819 1.875 16.6616 1.875H6.77223C5.85135 1.875 4.84375 2.50738 4.84375 3.60358V26.3964C4.84375 27.4926 5.85135 28.125 6.77223 28.125H21.7652V26.25H6.78125ZM22.3882 9.39892H17.8903V4.96209L22.3882 9.39892Z" fill="black" fill-opacity="0.9"/>
<path d="M16.2303 16.875H19.8369C20.7732 16.875 21.5322 17.6095 21.5322 18.5156V22.6995C21.5322 23.6056 20.7732 24.3402 19.8369 24.3402H16.2303V16.875ZM17.6835 18.2812V22.9339H19.8369C19.9706 22.9339 20.079 22.829 20.079 22.6995L20.079 18.5156C20.079 18.3862 19.9706 18.2812 19.8369 18.2812H17.6835Z" fill="black" fill-opacity="0.9"/>
<path d="M9.6875 16.8861H13.294C14.2303 16.8861 14.9893 17.6206 14.9893 18.5267V20.4988C14.9893 21.4049 14.2303 22.1394 13.294 22.1394H11.1406V24.3706H9.6875V16.8861ZM11.1406 20.7332H13.294C13.4278 20.7332 13.5362 20.6283 13.5362 20.4988V18.5267C13.5362 18.3973 13.4278 18.2924 13.294 18.2924H11.1406V20.7332Z" fill="black" fill-opacity="0.9"/>
<path d="M22.7732 24.3706H24.2263V21.406H27.3485V19.9998H24.2263V18.2813H27.3485V16.8751H22.7732V24.3706Z" fill="black" fill-opacity="0.9"/>
</svg>